{
  "accessors": [
    {
      "bufferView": 2,
      "componentType": 5126,
      "count": 1608,
      "max": [
        2.4632997512817383,
        8.0567865371704102,
        4.9953913688659668
      ],
      "min": [
        -2.6312494277954102,
        -1.4918404841207807e-16,
        -3.7938237190246582
      ],
      "type": "VEC3"
    },
    {
      "bufferView": 2,
      "byteOffset": 19296,
      "componentType": 5126,
      "count": 1608,
      "max": [
        1,
        1,
        0.99144792556762695
      ],
      "min": [
        -0.9914475679397583,
        -1,
        -0.9914478063583374
      ],
      "type": "VEC3"
    },
    {
      "bufferView": 1,
      "componentType": 5126,
      "count": 1608,
      "max": [
        1,
        1
      ],
      "min": [
        0,
        0
      ],
      "type": "VEC2"
    },
    {
      "bufferView": 0,
      "componentType": 5125,
      "count": 3084,
      "max": [
        1607
      ],
      "min": [
        0
      ],
      "type": "SCALAR"
    },
    {
      "bufferView": 2,
      "byteOffset": 38592,
      "componentType": 5126,
      "count": 65532,
      "max": [
        1.2856249809265137,
        7.3112854957580566,
        1.8816846609115601
      ],
      "min": [
        -1.1627069711685181,
        0.54008299112319946,
        -0.56158733367919922
      ],
      "type": "VEC3"
    },
    {
      "bufferView": 2,
      "byteOffset": 824976,
      "componentType": 5126,
      "count": 65532,
      "max": [
        1,
        1,
        1
      ],
      "min": [
        -1,
        -0.99999850988388062,
        -1
      ],
      "type": "VEC3"
    },
    {
      "bufferView": 1,
      "byteOffset": 12864,
      "componentType": 5126,
      "count": 65532,
      "max": [
        1,
        1
      ],
      "min": [
        0,
        0
      ],
      "type": "VEC2"
    },
    {
      "bufferView": 0,
      "byteOffset": 12336,
      "componentType": 5125,
      "count": 361347,
      "max": [
        65531
      ],
      "min": [
        0
      ],
      "type": "SCALAR"
    },
    {
      "bufferView": 2,
      "byteOffset": 1611360,
      "componentType": 5126,
      "count": 65532,
      "max": [
        1.1750874519348145,
        7.3769493103027344,
        1.9922221899032593
      ],
      "min": [
        -1.2681846618652344,
        1.6695575714111328,
        -0.55841493606567383
      ],
      "type": "VEC3"
    },
    {
      "bufferView": 2,
      "byteOffset": 2397744,
      "componentType": 5126,
      "count": 65532,
      "max": [
        1,
        1,
        1
      ],
      "min": [
        -1,
        -0.99999839067459106,
        -1
      ],
      "type": "VEC3"
    },
    {
      "bufferView": 1,
      "byteOffset": 537120,
      "componentType": 5126,
      "count": 65532,
      "max": [
        1,
        1
      ],
      "min": [
        0,
        0
      ],
      "type": "VEC2"
    },
    {
      "bufferView": 0,
      "byteOffset": 1457724,
      "componentType": 5125,
      "count": 360879,
      "max": [
        65531
      ],
      "min": [
        0
      ],
      "type": "SCALAR"
    },
    {
      "bufferView": 2,
      "byteOffset": 3184128,
      "componentType": 5126,
      "count": 14570,
      "max": [
        1.2795712947845459,
        7.3762197494506836,
        1.9861685037612915
      ],
      "min": [
        -1.2585418224334717,
        0.54130107164382935,
        -0.55553364753723145
      ],
      "type": "VEC3"
    },
    {
      "bufferView": 2,
      "byteOffset": 3358968,
      "componentType": 5126,
      "count": 14570,
      "max": [
        1,
        1,
        1
      ],
      "min": [
        -0.9999995231628418,
        -0.99999839067459106,
        -1
      ],
      "type": "VEC3"
    },
    {
      "bufferView": 1,
      "byteOffset": 1061376,
      "componentType": 5126,
      "count": 14570,
      "max": [
        1,
        1
      ],
      "min": [
        0,
        0
      ],
      "type": "VEC2"
    },
    {
      "bufferView": 0,
      "byteOffset": 2901240,
      "componentType": 5125,
      "count": 59886,
      "max": [
        14569
      ],
      "min": [
        0
      ],
      "type": "SCALAR"
    },
    {
      "bufferView": 2,
      "byteOffset": 3533808,
      "componentType": 5126,
      "count": 31,
      "max": [
        -2.6968700885772705,
        7.2879734039306641,
        4.0273294448852539
      ],
      "min": [
        -2.6968700885772705,
        0.7941630482673645,
        -2.4664807319641113
      ],
      "type": "VEC3"
    },
    {
      "bufferView": 2,
      "byteOffset": 3534180,
      "componentType": 5126,
      "count": 31,
      "max": [
        -1,
        -3.6749739251717983e-08,
        0
      ],
      "min": [
        -1,
        -3.6749739251717983e-08,
        0
      ],
      "type": "VEC3"
    },
    {
      "bufferView": 1,
      "byteOffset": 1177936,
      "componentType": 5126,
      "count": 31,
      "max": [
        1,
        1
      ],
      "min": [
        0,
        0
      ],
      "type": "VEC2"
    },
    {
      "bufferView": 0,
      "byteOffset": 3140784,
      "componentType": 5125,
      "count": 87,
      "max": [
        30
      ],
      "min": [
        0
      ],
      "type": "SCALAR"
    },
    {
      "bufferView": 2,
      "byteOffset": 3534552,
      "componentType": 5126,
      "count": 136,
      "max": [
        0.6395876407623291,
        6.3759670257568359,
        0.91435080766677856
      ],
      "min": [
        -1.110895037651062,
        -0.045448604971170425,
        -2.388798713684082
      ],
      "type": "VEC3"
    },
    {
      "bufferView": 2,
      "byteOffset": 3536184,
      "componentType": 5126,
      "count": 136,
      "max": [
        1,
        1,
        1
      ],
      "min": [
        -1,
        -1,
        -1
      ],
      "type": "VEC3"
    },
    {
      "bufferView": 1,
      "byteOffset": 1178184,
      "componentType": 5126,
      "count": 136,
      "max": [
        0.875,
        1
      ],
      "min": [
        0.125,
        -7.4505805969238281e-08
      ],
      "type": "VEC2"
    },
    {
      "bufferView": 0,
      "byteOffset": 3141132,
      "componentType": 5125,
      "count": 387,
      "max": [
        135
      ],
      "min": [
        0
      ],
      "type": "SCALAR"
    },
    {
      "bufferView": 2,
      "byteOffset": 3537816,
      "componentType": 5126,
      "count": 4062,
      "max": [
        1.3583903312683105,
        7.545985221862793,
        2.0649876594543457
      ],
      "min": [
        -1.3409501314163208,
        0.18406009674072266,
        -0.63435280323028564
      ],
      "type": "VEC3"
    },
    {
      "bufferView": 2,
      "byteOffset": 3586560,
      "componentType": 5126,
      "count": 4062,
      "max": [
        1,
        1,
        1
      ],
      "min": [
        -1,
        -1,
        -1
      ],
      "type": "VEC3"
    },
    {
      "bufferView": 1,
      "byteOffset": 1179272,
      "componentType": 5126,
      "count": 4062,
      "max": [
        1,
        1
      ],
      "min": [
        0,
        -7.4505805969238281e-08
      ],
      "type": "VEC2"
    },
    {
      "bufferView": 0,
      "byteOffset": 3142680,
      "componentType": 5125,
      "count": 11535,
      "max": [
        4061
      ],
      "min": [
        0
      ],
      "type": "SCALAR"
    }
  ],
  "asset": {
    "extras": {
      "author": "Enkairin (https://sketchfab.com/Enkairin)",
      "license": "CC-BY-4.0 (http://creativecommons.org/licenses/by/4.0/)",
      "source": "https://sketchfab.com/3d-models/floating-central-pillar-staircase-8f46215aa70e4e7ba27d2e20ec400022",
      "title": "Floating Central Pillar Staircase"
    },
    "generator": "Sketchfab-7.72.0",
    "version": "2.0"
  },
  "bufferViews": [
    {
      "buffer": 0,
      "byteLength": 3188820,
      "byteOffset": 0,
      "name": "floatBufferViews",
      "target": 34963
    },
    {
      "buffer": 0,
      "byteLength": 1211768,
      "byteOffset": 3188820,
      "byteStride": 8,
      "name": "floatBufferViews",
      "target": 34962
    },
    {
      "buffer": 0,
      "byteLength": 3635304,
      "byteOffset": 4400588,
      "byteStride": 12,
      "name": "floatBufferViews",
      "target": 34962
    }
  ],
  "buffers": [
    {
      "byteLength": 8035892,
      "uri": "scene.bin"
    }
  ],
  "images": [
    {
      "uri": "textures/Photo_baseColor.jpeg"
    }
  ],
  "materials": [
    {
      "doubleSided": true,
      "emissiveFactor": [
        0,
        0,
        0
      ],
      "name": "lambert1",
      "pbrMetallicRoughness": {
        "baseColorFactor": [
          1,
          1,
          1,
          1
        ],
        "metallicFactor": 1,
        "roughnessFactor": 1
      }
    },
    {
      "doubleSided": true,
      "emissiveFactor": [
        0,
        0,
        0
      ],
      "name": "Currlies",
      "pbrMetallicRoughness": {
        "baseColorFactor": [
          1,
          1,
          1,
          1
        ],
        "metallicFactor": 0.48342225609756095,
        "roughnessFactor": 1
      }
    },
    {
      "doubleSided": true,
      "emissiveFactor": [
        0,
        0,
        0
      ],
      "name": "Photo",
      "pbrMetallicRoughness": {
        "baseColorFactor": [
          1,
          1,
          1,
          1
        ],
        "baseColorTexture": {
          "index": 0,
          "texCoord": 0
        },
        "metallicFactor": 0.40415396341463417,
        "roughnessFactor": 0
      }
    },
    {
      "doubleSided": true,
      "emissiveFactor": [
        0,
        0,
        0
      ],
      "name": "pillar_and_floro",
      "pbrMetallicRoughness": {
        "baseColorFactor": [
          0.64935100000000001,
          0.64935100000000001,
          0.64935100000000001,
          1
        ],
        "metallicFactor": 0,
        "roughnessFactor": 0.59999999999999998
      }
    },
    {
      "doubleSided": true,
      "emissiveFactor": [
        0,
        0,
        0
      ],
      "name": "wood",
      "pbrMetallicRoughness": {
        "baseColorFactor": [
          0.021917599999999999,
          0.0095102599999999995,
          0.0079008299999999976,
          1
        ],
        "metallicFactor": 0,
        "roughnessFactor": 1
      }
    }
  ],
  "meshes": [
    {
      "name": "SpiralFloatingStaircase_lambert1_0",
      "primitives": [
        {
          "attributes": {
            "NORMAL": 1,
            "POSITION": 0,
            "TEXCOORD_0": 2
          },
          "indices": 3,
          "material": 0,
          "mode": 4
        }
      ]
    },
    {
      "name": "SpiralFloatingStaircase_Currlies_0",
      "primitives": [
        {
          "attributes": {
            "NORMAL": 5,
            "POSITION": 4,
            "TEXCOORD_0": 6
          },
          "indices": 7,
          "material": 1,
          "mode": 4
        }
      ]
    },
    {
      "name": "SpiralFloatingStaircase_Currlies_0",
      "primitives": [
        {
          "attributes": {
            "NORMAL": 9,
            "POSITION": 8,
            "TEXCOORD_0": 10
          },
          "indices": 11,
          "material": 1,
          "mode": 4
        }
      ]
    },
    {
      "name": "SpiralFloatingStaircase_Currlies_0",
      "primitives": [
        {
          "attributes": {
            "NORMAL": 13,
            "POSITION": 12,
            "TEXCOORD_0": 14
          },
          "indices": 15,
          "material": 1,
          "mode": 4
        }
      ]
    },
    {
      "name": "SpiralFloatingStaircase_Photo_0",
      "primitives": [
        {
          "attributes": {
            "NORMAL": 17,
            "POSITION": 16,
            "TEXCOORD_0": 18
          },
          "indices": 19,
          "material": 2,
          "mode": 4
        }
      ]
    },
    {
      "name": "SpiralFloatingStaircase_pillar_and_floro_0",
      "primitives": [
        {
          "attributes": {
            "NORMAL": 21,
            "POSITION": 20,
            "TEXCOORD_0": 22
          },
          "indices": 23,
          "material": 3,
          "mode": 4
        }
      ]
    },
    {
      "name": "SpiralFloatingStaircase_wood_0",
      "primitives": [
        {
          "attributes": {
            "NORMAL": 25,
            "POSITION": 24,
            "TEXCOORD_0": 26
          },
          "indices": 27,
          "material": 4,
          "mode": 4
        }
      ]
    }
  ],
  "nodes": [
    {
      "children": [
        1
      ],
      "name": "RootNode (gltf orientation matrix)",
      "rotation": [
        -0.70710678118654746,
        -0,
        -0,
        0.70710678118654757
      ]
    },
    {
      "children": [
        2
      ],
      "name": "RootNode (model correction matrix)"
    },
    {
      "children": [
        3
      ],
      "matrix": [
        1,
        0,
        0,
        0,
        0,
        0,
        1,
        0,
        0,
        -1,
        0,
        0,
        0,
        0,
        0,
        1
      ],
      "name": "d19e050085c04051b264157b84b3f6c4.fbx"
    },
    {
      "children": [
        4
      ],
      "name": "RootNode"
    },
    {
      "children": [
        5,
        6,
        7,
        8,
        9,
        10,
        11
      ],
      "name": "SpiralFloatingStaircase"
    },
    {
      "mesh": 0,
      "name": "SpiralFloatingStaircase_lambert1_0"
    },
    {
      "mesh": 1,
      "name": "SpiralFloatingStaircase_Currlies_0"
    },
    {
      "mesh": 2,
      "name": "SpiralFloatingStaircase_Currlies_0"
    },
    {
      "mesh": 3,
      "name": "SpiralFloatingStaircase_Currlies_0"
    },
    {
      "mesh": 4,
      "name": "SpiralFloatingStaircase_Photo_0"
    },
    {
      "mesh": 5,
      "name": "SpiralFloatingStaircase_pillar_and_floro_0"
    },
    {
      "mesh": 6,
      "name": "SpiralFloatingStaircase_wood_0"
    }
  ],
  "samplers": [
    {
      "magFilter": 9729,
      "minFilter": 9987,
      "wrapS": 10497,
      "wrapT": 10497
    }
  ],
  "scene": 0,
  "scenes": [
    {
      "name": "OSG_Scene",
      "nodes": [
        0
      ]
    }
  ],
  "textures": [
    {
      "sampler": 0,
      "source": 0
    }
  ]
}

